<svg xmlns="http://www.w3.org/2000/svg" xmlns:xlink="http://www.w3.org/1999/xlink" width="500" zoomAndPan="magnify" viewBox="0 0 375 374.999991" height="500" preserveAspectRatio="xMidYMid meet" version="1.0"><defs><g/></defs><g fill="#231f20" fill-opacity="1"><g transform="translate(129.343004, 269.410551)"><g><path d="M 121.25 -91.03125 C 123.65625 -95.976562 125.300781 -98.257812 126.1875 -97.875 C 127.082031 -97.5 127.304688 -95.503906 126.859375 -91.890625 C 126.421875 -88.273438 125.628906 -84.191406 124.484375 -79.640625 C 122.835938 -72.671875 119.988281 -64.59375 115.9375 -55.40625 C 111.882812 -46.21875 107.382812 -37.882812 102.4375 -30.40625 C 95.09375 -20.019531 86.003906 -12.195312 75.171875 -6.9375 C 64.335938 -1.675781 54.515625 -0.375 45.703125 -3.03125 C 36.898438 -5.695312 31.800781 -14 30.40625 -27.9375 C 30.15625 -39.59375 31.171875 -52.390625 33.453125 -66.328125 C 34.210938 -72.160156 35.035156 -77.863281 35.921875 -83.4375 C 35.921875 -85.457031 35.410156 -87.003906 34.390625 -88.078125 C 33.378906 -89.160156 32.050781 -89.578125 30.40625 -89.328125 C 29.269531 -89.328125 28.003906 -89.328125 26.609375 -89.328125 C 19.640625 -88.179688 12.546875 -88.304688 5.328125 -89.703125 C -3.296875 -92.234375 -8.300781 -96.507812 -9.6875 -102.53125 C -11.082031 -108.550781 -10.957031 -116.441406 -9.3125 -126.203125 C -8.425781 -133.171875 -5.828125 -138.394531 -1.515625 -141.875 C 2.785156 -145.363281 7.851562 -146.789062 13.6875 -146.15625 C 21.789062 -145.394531 25.71875 -142.289062 25.46875 -136.84375 C 25.21875 -131.394531 23.695312 -125.566406 20.90625 -119.359375 C 18.375 -114.160156 17.039062 -109.816406 16.90625 -106.328125 C 16.78125 -102.847656 19.757812 -101.613281 25.84375 -102.625 C 27.238281 -103.007812 28.757812 -103.453125 30.40625 -103.953125 C 32.6875 -104.847656 35.285156 -105.640625 38.203125 -106.328125 C 41.117188 -107.023438 44.921875 -107.1875 49.609375 -106.8125 C 55.179688 -106.5625 58.882812 -103.992188 60.71875 -99.109375 C 62.5625 -94.234375 63.351562 -88.117188 63.09375 -80.765625 C 62.84375 -73.421875 62.148438 -65.945312 61.015625 -58.34375 C 59.617188 -48.84375 58.921875 -40.703125 58.921875 -33.921875 C 58.921875 -27.140625 60.882812 -23.179688 64.8125 -22.046875 C 70 -20.648438 77.753906 -25.367188 88.078125 -36.203125 C 98.410156 -47.035156 109.46875 -65.3125 121.25 -91.03125 Z M 121.25 -91.03125 "/></g></g></g></svg>